<svg xmlns="http://www.w3.org/2000/svg" width="190.607" height="82.14" viewBox="0 0 190.607 82.14">
  <g id="Logo_4" data-name="Logo 4" transform="translate(0 0)">
    <rect id="Logo_box" data-name="Logo box" width="190.607" height="82.14" fill="none"/>
    <g id="viber-3" transform="translate(27.38 11.53)">
      <path id="Shape" d="M69.1,53.024c-9.371.105-19.586-.105-29.8-.737a2.711,2.711,0,0,0-2.317,1.053c-2.633,2.95-5.265,5.9-8,8.846-.421.421-.842,1.264-1.58.948s-.421-1.159-.421-1.79c0-2.422-.105-4.949,0-7.372.105-1.9-.316-2.843-2.527-2.843a51.835,51.835,0,0,1-8-.948C7.392,48.074,1.285,43.126.442,32.8a52.5,52.5,0,0,1,0-13.479C1.917,10.058,7.287,4.793,16.554,3.213A277.012,277.012,0,0,1,57.2.054C71.42-.156,85.636.265,99.853,1a133.892,133.892,0,0,1,20.43,2.633c8.108,1.685,13.583,7.9,14.322,16.323a60.954,60.954,0,0,1-.212,14.532,16.841,16.841,0,0,1-10.423,13.584c-5.16,2.213-10.638,2.95-16.113,3.37C95.114,52.392,82.582,53.129,69.1,53.024Z" transform="translate(0 0)" fill="#cedaf8"/>
      <path id="Shape-2" data-name="Shape" d="M66.884,25.208h0a7.735,7.735,0,0,1-4-1.191l-.017-.011-.018-.012-.011-.007-.011-.007-.014-.009-.034-.023,0,0-.008,0a1.317,1.317,0,0,0-.633-.3c-.192,0-.371.141-.619.487a2.077,2.077,0,0,1-1.755.941,3.165,3.165,0,0,1-1.3-.309c-1.02-.464-1.475-1.34-1.475-2.843V3.482a4.04,4.04,0,0,1,.567-2.3A2.342,2.342,0,0,1,59.611.217c1.652,0,2.422,1,2.422,3.159V4.535c0,1.809,0,2.419.721,2.419a7.923,7.923,0,0,0,1.77-.407l.014,0,.022-.007a7.932,7.932,0,0,1,2.3-.35,6.926,6.926,0,0,1,3.6.992,7.354,7.354,0,0,1,2.63,2.832A12.593,12.593,0,0,1,74.67,15.7a10.9,10.9,0,0,1-1.58,5.687A7.174,7.174,0,0,1,66.884,25.208ZM65.658,10.639a3.362,3.362,0,0,0-2.663,1.332,5.484,5.484,0,0,0-1.067,3.411A6.029,6.029,0,0,0,62.981,18.9a3.479,3.479,0,0,0,2.633,1.539c.1.009.2.014.3.014a3.2,3.2,0,0,0,2.569-1.359A5.666,5.666,0,0,0,69.51,15.7c0-2.822-1.55-4.947-3.686-5.054C65.781,10.64,65.732,10.639,65.658,10.639ZM84.84,25.172a10.528,10.528,0,0,1-4.062-.839c-3.444-1.477-5.265-4.463-5.265-8.636a9.757,9.757,0,0,1,2.211-6.489,8.719,8.719,0,0,1,5.687-3.094c.28-.025.557-.038.825-.038a8.791,8.791,0,0,1,5.69,2.087,9.242,9.242,0,0,1,3.068,5.428c.273,1.364.2,2.223-.245,2.786s-1.281.845-2.7.9h-8.32c-.53,0-.861.113-.984.336s-.046.566.246,1.034A4.462,4.462,0,0,0,85,20.678a5.833,5.833,0,0,0,2-.348,16.489,16.489,0,0,0,1.8-.84c.235-.122.432-.223.622-.318a2.777,2.777,0,0,1,1.312-.385A1.91,1.91,0,0,1,92.362,19.8c.744,1.115.482,2.2-.736,3.054A11.952,11.952,0,0,1,84.84,25.172ZM84.155,10.28a3.4,3.4,0,0,0-2.323.994c-.642.641-1.37,1.368-1.053,2.316a.726.726,0,0,0,.77.488,4.168,4.168,0,0,0,.487-.04h.008a4.414,4.414,0,0,1,.509-.04,1.589,1.589,0,0,1,.225.015,5.15,5.15,0,0,0,.632-.053,5.145,5.145,0,0,1,.632-.053c.136,0,.282.011.436.022s.324.024.485.024a1.853,1.853,0,0,0,.448-.047,1.721,1.721,0,0,1,.218-.013,5.111,5.111,0,0,1,.667.061l.012,0a5.014,5.014,0,0,0,.641.059c.457,0,.7-.164.779-.531.37-1.478-1.128-2.407-1.789-2.738A4.009,4.009,0,0,0,84.155,10.28ZM38.233,24.964A2.6,2.6,0,0,1,35.6,22.858c-1.187-3.046-2.443-6.225-3.551-9.03l-.108-.273-.034-.085-.006-.016c-1.147-2.906-2.448-6.2-3.672-9.34a3.145,3.145,0,0,1-.078-2.484A2.644,2.644,0,0,1,29.809.322a3.1,3.1,0,0,1,.973-.175c1.306,0,1.945,1.153,2.4,2.281.92,2.63,1.886,5.271,2.909,8.068l.024.065.056.152,0,.012c.613,1.673,1.215,3.321,1.851,5.078,1.648-4.327,3.013-8,4.423-11.9l0-.01,0-.005a14.059,14.059,0,0,1,.731-1.88C43.722.748,44.5.11,45.491.11a3.051,3.051,0,0,1,1.061.212A2.355,2.355,0,0,1,48.159,1.77a3.661,3.661,0,0,1-.132,2.238c-.646,1.694-1.3,3.382-2.154,5.558l-.025.063c-.988,2.528-2.01,5.142-2.982,7.753l-.049.126c-.667,1.716-1.423,3.66-2.162,5.455a2.814,2.814,0,0,1-2.423,2Zm-18.85-.21h0a1.756,1.756,0,0,0-.423-.1,4.131,4.131,0,0,1-.84-.213A34.733,34.733,0,0,1,7.458,17.357,31.356,31.356,0,0,1,.428,6.641,4.42,4.42,0,0,1,.345,3.036,4.891,4.891,0,0,1,3.376.533a2.062,2.062,0,0,1,1.58,0A8.7,8.7,0,0,1,7.6,3.219,9.671,9.671,0,0,1,9.38,6.536a2.127,2.127,0,0,1-1.263,2A2.265,2.265,0,0,0,7.379,11.7a11.9,11.9,0,0,0,6,5.792,2.73,2.73,0,0,0,1.083.263,1.634,1.634,0,0,0,1.444-.895,2.636,2.636,0,0,1,2.181-1.435,3.531,3.531,0,0,1,2.031.8c.248.178.5.348.662.46a19.007,19.007,0,0,1,1.656,1.225c.085.068.172.136.26.2l.061.047c.95.735,1.933,1.5,1.364,3.013A5.769,5.769,0,0,1,19.384,24.754Zm4-12.111h0c-.552-.079-.572-.564-.592-1.033v-.088a2.327,2.327,0,0,0-.036-.353c-.733-6.072-3.509-8.94-9.583-9.9a3.458,3.458,0,0,0-.372-.049c-.439-.045-.893-.091-.893-.582,0-.563.334-.639.662-.639.067,0,.136,0,.2.008h.017l.04,0h.031c.064,0,.148.01.232.01a.743.743,0,0,0,.187-.018,11.22,11.22,0,0,1,7.582,3.541,11.065,11.065,0,0,1,3.159,7.727c0,.077,0,.155.01.258v.021a1.273,1.273,0,0,1-.159.921A.629.629,0,0,1,23.386,12.643Z" transform="translate(14.947 14.475)" fill="#fff"/>
      <path id="Shape-3" data-name="Shape" d="M52.253,24.964c-1.607-.1-2.422-1.058-2.422-2.843v-11.9c0-1.817.85-2.738,2.527-2.738,1.562,0,2.422.935,2.422,2.633v12.11C54.781,23.991,53.883,24.964,52.253,24.964Zm44.986-.2h0c-.059,0-.128,0-.231-.008-1.38-.1-2.2-1.035-2.316-2.633,0-2.106,0-4.422,0-6.74V9.062a2.546,2.546,0,0,1,1.474-2.527A3.236,3.236,0,0,1,97.5,6.219a2.109,2.109,0,0,1,1.719.842c.256.385.473.564.684.564.232,0,.437-.208.7-.471l.092-.093a3.556,3.556,0,0,1,2.344-.862,3.906,3.906,0,0,1,.4.02,2.362,2.362,0,0,1,2.106,2c.218,1.2-.237,2.112-1.159,2.316a5.564,5.564,0,0,0-4.041,2.869,9.017,9.017,0,0,0-.487,4.923,16.7,16.7,0,0,1-.105,4A2.462,2.462,0,0,1,97.239,24.76ZM19.4,24.753h0a2.989,2.989,0,0,0-.424-.1,4.081,4.081,0,0,1-.839-.22,34.225,34.225,0,0,1-10.7-7.082A31.5,31.5,0,0,1,.441,6.64,4.575,4.575,0,0,1,.35,2.931,4.786,4.786,0,0,1,3.391.532a2.06,2.06,0,0,1,1.579,0A8.694,8.694,0,0,1,7.616,3.218,9.671,9.671,0,0,1,9.393,6.535c.1.878-.522,1.388-1.121,1.882l-.087.072-.052.044c-1.13.754-1.351,1.7-.741,3.162a11.084,11.084,0,0,0,6,5.792,2.716,2.716,0,0,0,1.083.263,1.634,1.634,0,0,0,1.444-.895,2.578,2.578,0,0,1,2.15-1.391,3.791,3.791,0,0,1,2.061.759,18.448,18.448,0,0,1,2.317,1.685c.13.105.276.215.373.288l.028.021c.944.714,1.836,1.388,1.283,2.955A5.769,5.769,0,0,1,19.4,24.753Zm4-12.111a.631.631,0,0,1-.481-.167,1.373,1.373,0,0,1-.163-.982c.005-.1.011-.218.011-.325-.733-6.072-3.509-8.94-9.583-9.9-.114-.023-.235-.036-.372-.049-.438-.045-.892-.091-.892-.582.063-.562.384-.638.691-.638.084,0,.169.006.245.012h.027c.076.005.15.01.222.01a.77.77,0,0,0,.184-.018,11.22,11.22,0,0,1,7.582,3.541,11.065,11.065,0,0,1,3.159,7.727c0,.08.005.167.011.258v.015a1.279,1.279,0,0,1-.158.927A.63.63,0,0,1,23.4,12.642ZM52.385,5.8A2.6,2.6,0,0,1,50.5,5a2.778,2.778,0,0,1-.77-1.942A2.843,2.843,0,0,1,52.409.21c.053,0,.107,0,.16.006A2.951,2.951,0,0,1,55.2,3.059C54.97,4.806,54.109,5.7,52.569,5.8,52.508,5.8,52.446,5.8,52.385,5.8Z" transform="translate(14.933 14.476)" fill="#fff"/>
      <path id="Shape-4" data-name="Shape" d="M8.328,7.307c-.105.421.211,1.158-.527,1.264-.948.105-.737-.737-.842-1.264-.632-3.686-1.9-5.055-5.687-5.9C.746,1.3-.1,1.41.009.567S.957.041,1.483.146A7.564,7.564,0,0,1,8.328,7.307Z" transform="translate(27.687 17.389)" fill="#fff"/>
      <path id="Shape-5" data-name="Shape" d="M4.681,3.585c0,.421,0,.948-.632,1.053-.421,0-.632-.316-.737-.737A2.584,2.584,0,0,0,.785,1.268C.364,1.163-.163,1.057.048.425.153,0,.574,0,1,0A3.865,3.865,0,0,1,4.681,3.585Z" transform="translate(28.49 20.48)" fill="#fff"/>
    </g>
  </g>
</svg>
