<svg xmlns="http://www.w3.org/2000/svg" width="190.607" height="82.14" viewBox="0 0 190.607 82.14">
  <g id="Logo_6" data-name="Logo 6" transform="translate(0 0)" opacity="0.26">
    <rect id="Logo_box" data-name="Logo box" width="190.607" height="82.14" fill="none"/>
    <g id="dribbble" transform="translate(17.904 21.062)">
      <path id="Shape" d="M8.816,40.017a7.317,7.317,0,0,1-3.165-.784A9.646,9.646,0,0,1,.168,31.59a11.654,11.654,0,0,1,1.006-7.15,6.737,6.737,0,0,1,4.471-3.982,8.31,8.31,0,0,1,1.925-.229,7.7,7.7,0,0,1,2.974.6l-.019-.174c-.02-.187-.047-.437-.084-.76v-.006c-.046-.4-.141-1.238-.2-1.986A32.781,32.781,0,0,1,11.273,5.628a8.559,8.559,0,0,1,1.366-2.776,3.667,3.667,0,0,1,2.9-1.508,3.817,3.817,0,0,1,2.207.75A7.634,7.634,0,0,1,20.492,6.3a18.83,18.83,0,0,1,.662,5.906,54.093,54.093,0,0,1-3.927,19.667.759.759,0,0,0,.026.583,9.731,9.731,0,0,0,.923,1.406.837.837,0,0,0,.632.394,1.287,1.287,0,0,0,.6-.2,11.5,11.5,0,0,0,4.536-4.6,37.577,37.577,0,0,0,3.387-7.375.559.559,0,0,0-.177-.692A5.833,5.833,0,0,1,25.094,16.2a2.447,2.447,0,0,1,2.42-2.349,3,3,0,0,1,1.208.267,5.085,5.085,0,0,1,2.878,3.77l.018.075c.216.89.22.907,1.188,1.05.362.053.754.107,1.233.17l.033,0,.038,0,.03,0,.035,0c.737.1,1.573.21,2.379.372a3.232,3.232,0,0,1,2.931,3.617c0,.843-.068,1.664-.134,2.458l0,.053,0,.025c-.038.456-.077.941-.1,1.4a16.853,16.853,0,0,0,.236,4.845,4.4,4.4,0,0,0,.421,1.105,1.435,1.435,0,0,0,1.258.839,1.625,1.625,0,0,0,.7-.172,4.157,4.157,0,0,0,1.248-.884c.653-.7,1.25-1.441,1.827-2.162l.027-.033.169-.21a.846.846,0,0,0,.106-.512A46.9,46.9,0,0,1,45.8,19.921c.17-1.076.462-1.495,1.042-1.495a2.977,2.977,0,0,1,1.088.284,2.865,2.865,0,0,1,2.026,3.111c-.029,1-.076,2.071-.109,2.791l0,.045,0,.04,0,.051c-.042.947-.09,2.047-.116,3.13a13.712,13.712,0,0,0,.328,4.1,4.6,4.6,0,0,0,.624,1.359,1.681,1.681,0,0,0,1.378.786,1.72,1.72,0,0,0,1.2-.526,8.053,8.053,0,0,0,1.2-1.48c1.648-2.654,3.239-5.271,5.147-8.416l.12-.2a1.106,1.106,0,0,0,.148-.555,77.308,77.308,0,0,1,.571-10.723,29.623,29.623,0,0,1,1.815-7.74A10.112,10.112,0,0,1,63.63,2.132,2.814,2.814,0,0,1,65.839.946a3.192,3.192,0,0,1,1.98.779,5.042,5.042,0,0,1,1.842,3.793,20.129,20.129,0,0,1-.952,6.872A69.124,69.124,0,0,1,63.6,24.91a2.154,2.154,0,0,0-.218,1,19.4,19.4,0,0,0,1.034,6.447,10.227,10.227,0,0,0,.826,1.779,7.206,7.206,0,0,0,1.251,1.549,2.2,2.2,0,0,0,1.5.655,2.316,2.316,0,0,0,1.421-.545,6.179,6.179,0,0,0,1.225-1.269,8.254,8.254,0,0,0,1.492-4.173.979.979,0,0,0-.253-.61c-.143-.177-.3-.349-.482-.539l-.007-.008-.024-.026,0,0,0,0,0-.006a7.317,7.317,0,0,1-.669-.78,12.707,12.707,0,0,1-2.328-5.415,3.455,3.455,0,0,1-.044-.548,2.055,2.055,0,0,1,.488-1.5,1.346,1.346,0,0,1,.984-.385,2.428,2.428,0,0,1,.837.166,4.886,4.886,0,0,1,1.693,1.091A11.353,11.353,0,0,1,75.466,27.9c0,.016.006.032.008.047l0,.022,0,.027,0,.014c.045.278.083.517.474.565a3.559,3.559,0,0,0,.407.029.749.749,0,0,0,.79-.486,4.818,4.818,0,0,0,.175-.454,3.588,3.588,0,0,1,.252-.6c.239-.415.528-.857.7-1.121l.016-.025,0-.006.022-.032.009-.012c.155-.238.292-.451.417-.651.377-.6.778-1.254,1.155-1.914a.67.67,0,0,0,.04-.344v-.02c0-.032,0-.06,0-.085a75.941,75.941,0,0,1,.572-10.678,28.994,28.994,0,0,1,1.729-7.482A10.873,10.873,0,0,1,83.7,2.128,2.783,2.783,0,0,1,85.9.948a3.182,3.182,0,0,1,1.987.782,5.067,5.067,0,0,1,1.835,3.8,20.164,20.164,0,0,1-.954,6.872,67.439,67.439,0,0,1-5.14,12.556l-.01.021a1.271,1.271,0,0,0-.192.571,21.4,21.4,0,0,0,1.048,6.815,8.733,8.733,0,0,0,1.558,2.825,4.527,4.527,0,0,0,.736.672,2.248,2.248,0,0,0,1.315.471,2.044,2.044,0,0,0,1.207-.421A6.117,6.117,0,0,0,90.6,34.661a8.282,8.282,0,0,0,1.6-4.322.7.7,0,0,0-.154-.521A10.882,10.882,0,0,1,89.12,25.4a12.459,12.459,0,0,1-.517-1.718l-.006-.023,0-.006V23.65l0-.01-.027-.11c-.049-.2-.1-.381-.151-.584a1.629,1.629,0,0,1-.041-.395V22.49a2.116,2.116,0,0,1,.484-1.563,1.4,1.4,0,0,1,1.028-.4,2.7,2.7,0,0,1,.98.209,5.012,5.012,0,0,1,2.055,1.608,11.663,11.663,0,0,1,2.642,5.795.424.424,0,0,0,.377.418,2.282,2.282,0,0,0,.508.069c.482,0,.735-.259.936-.954A2.884,2.884,0,0,1,97.712,27l0-.008.008-.012c.2-.332.424-.692.657-1.069l.145-.235.106-.172.083-.135,0-.006.008-.011.088-.143.105-.172c.3-.488.608-.991.9-1.488a1.264,1.264,0,0,0,.172-.642,78.238,78.238,0,0,1,.482-9.949A31.41,31.41,0,0,1,102.3,4.7a10.793,10.793,0,0,1,1.513-2.636A2.745,2.745,0,0,1,105.962.95,3.122,3.122,0,0,1,107.9,1.7a5.072,5.072,0,0,1,1.877,3.823,20.216,20.216,0,0,1-.953,6.872,68.659,68.659,0,0,1-5.11,12.519,2.159,2.159,0,0,0-.221,1,20.6,20.6,0,0,0,1.046,6.492,8.841,8.841,0,0,0,1.509,2.749,4.755,4.755,0,0,0,.691.656,2.25,2.25,0,0,0,1.385.525,2.122,2.122,0,0,0,1.252-.438,5.83,5.83,0,0,0,1.271-1.222,8.278,8.278,0,0,0,1.6-4.32.7.7,0,0,0-.147-.526,11.619,11.619,0,0,1-2.963-4.494,7.526,7.526,0,0,1-.707-3.151c.027-.884.442-1.474,1.11-1.577a2.816,2.816,0,0,1,.4-.03,3,3,0,0,1,.666.074,3.633,3.633,0,0,1,1.861,1.159,11.487,11.487,0,0,1,3.113,6.191c.068.419.238.578.626.586.1,0,.209.007.357.017h.019l.034,0c.126.008.284.017.43.017a2.4,2.4,0,0,0,.507-.049,2.961,2.961,0,0,0,1.126-.582.81.81,0,0,0,.19-.677,44.4,44.4,0,0,1,.387-20.286,15.194,15.194,0,0,1,1.812-4.577,8.21,8.21,0,0,1,.578-.821A3.889,3.889,0,0,1,124.693,0a4.113,4.113,0,0,1,2.713,1.14,8.6,8.6,0,0,1,2.432,4.221,24.272,24.272,0,0,1,.86,7.493,24.175,24.175,0,0,1-1.21,7.9,24.834,24.834,0,0,1-4.028,6.708c-.079.1-.163.2-.275.34l-.022.027c-.174.212-.357.439-.522.672a.533.533,0,0,0-.073.437c.547,1.093,1.133,2.257,1.764,3.407a4.938,4.938,0,0,0,.756.959,2.22,2.22,0,0,0,1.655.722h.08l.111,0a6.876,6.876,0,0,0,4.575-1.642.766.766,0,0,0,.295-.849,12.839,12.839,0,0,1,3.728-11.975,7.7,7.7,0,0,1,5.587-2.309c.106,0,.214,0,.319.006a5.864,5.864,0,0,1,4.291,2.1,6.036,6.036,0,0,1,1.318,4.736,10.969,10.969,0,0,1-4.521,7.2,12.219,12.219,0,0,1-4.28,2.11l.159.127.022.017a2.543,2.543,0,0,0,.264.2,8.075,8.075,0,0,0,4.406,1.15c.25,0,.536-.009.851-.027,2.925-.184,5.426-1.631,7.647-4.424.176-.223.34-.447.548-.736l.013-.018c.151-.21.274-.378.388-.531.208-.275.393-.4.582-.4a.784.784,0,0,1,.536.315,4.379,4.379,0,0,1,1.245,2.875,2.363,2.363,0,0,1-.507,1.535,15.185,15.185,0,0,1-5.17,4.438,14.193,14.193,0,0,1-6.469,1.475c-.4,0-.84-.016-1.293-.047a11.245,11.245,0,0,1-6.5-2.437c-.283-.228-.547-.488-.741-.677l-.005-.005-.006-.006L136.2,36.2l-.057-.056-.054-.052-.165-.157c-.351.195-.721.408-1.134.647l-.027.015-.037.022-.033.019-.006,0-.005,0c-.8.464-1.635.945-2.507,1.344a8.862,8.862,0,0,1-3.675.87,7.087,7.087,0,0,1-1.343-.127,7.252,7.252,0,0,1-4.542-3.022,23.584,23.584,0,0,1-1.413-2.28l-.015-.026,0-.009-.01-.016-.015-.027,0-.009-.054-.1-.009-.017-.013-.023c-.18-.319-.344-.607-.512-.889a2.324,2.324,0,0,1-.146-.307l0-.008-.008-.019c-.021-.05-.043-.1-.065-.152a8.184,8.184,0,0,1-2.341.337,9.888,9.888,0,0,1-1.988-.211c-.067.242-.145.531-.249.918l-.008.025,0,.018-.014.052,0,.008,0,.017c-.162.6-.33,1.227-.533,1.844a7.728,7.728,0,0,1-2.425,3.745A5.427,5.427,0,0,1,109.3,39.9a6.608,6.608,0,0,1-2.885-.733,9.747,9.747,0,0,1-4.018-3.925,13.725,13.725,0,0,1-1.859-4.648.547.547,0,0,0-.044-.117l0-.007-.012-.027-.013-.03c-.01-.024-.022-.05-.034-.082a3.346,3.346,0,0,1-2.983,1.846,5.086,5.086,0,0,1-1.495-.244c-.048.173-.1.345-.141.512l-.058.209-.051.189-.01.038c-.188.693-.36,1.319-.561,1.959A8.284,8.284,0,0,1,93.4,37.926a5.575,5.575,0,0,1-4.187,1.968,6.127,6.127,0,0,1-2.238-.443,9.021,9.021,0,0,1-3.892-3.11,15.632,15.632,0,0,1-2.727-6.228,3.208,3.208,0,0,1-2.967,2.076,5.007,5.007,0,0,1-1.466-.247c-.1.349-.195.661-.251.861l-.009.031-.009.03-.029.1c-.229.8-.444,1.552-.736,2.347a8.677,8.677,0,0,1-1.022,1.931,5.691,5.691,0,0,1-4.721,2.651,6.311,6.311,0,0,1-2.853-.718,9.854,9.854,0,0,1-3.721-3.467c-1.011-1.517-1.44-2.578-2.3-5.673-.059.093-.113.181-.183.3l-.069.113-.055.09-.009.015-.02.033-.026.042,0,.007c-.171.277-.365.59-.555.87-.242.356-.477.706-.7,1.04l0,.006-.026.039,0,.007-.013.02-.006.009c-.666.992-1.421,2.116-2.208,3.153A13.149,13.149,0,0,1,54.4,37.764a4.506,4.506,0,0,1-2.966,1.146,5.107,5.107,0,0,1-3.891-1.965c-.279-.355-.528-.744-.711-1.029l-.007-.011,0,0-.03-.047-.055-.084c-.072-.112-.142-.22-.216-.33-.163.15-.324.3-.465.433L46,35.925l-.029.027-.1.09c-.479.453-.974.92-1.5,1.337A6.1,6.1,0,0,1,40.513,38.9c-.087,0-.177,0-.291-.008a4.983,4.983,0,0,1-4.112-2.449,10.932,10.932,0,0,1-1.506-4.9,29.076,29.076,0,0,1,.057-6.1,7.789,7.789,0,0,0,.047-1.054,1,1,0,0,0-.907-1.129c-.555-.105-1.135-.186-1.647-.257l-.016,0-.035,0-.048-.007-.048-.007-.012,0-.124-.017h-.006l-.668-.1c-.064.169-.129.345-.189.507l-.028.074-.023.062,0,.008-.023.062-.072.194-.092.25,0,.006-.011.03c-.281.767-.6,1.636-.957,2.475a39.053,39.053,0,0,1-4.973,8.547A10.794,10.794,0,0,1,23.385,36.6a4.843,4.843,0,0,1-3.228,1.33,5.01,5.01,0,0,1-2.694-.847A11.6,11.6,0,0,1,16.086,36l0,0-.028-.025-.024-.021c-.188-.164-.345-.3-.509-.432-.157.181-.314.366-.618.733l-.062.074-.016.02a19.285,19.285,0,0,1-1.6,1.779A6.34,6.34,0,0,1,8.816,40.017Zm-.478-16.2A3.614,3.614,0,0,0,5.638,25a7.274,7.274,0,0,0-1.3,1.906,8.8,8.8,0,0,0,.045,7.214,2.641,2.641,0,0,0,1.927,1.653,7.853,7.853,0,0,0,.99.139H7.3c.211.02.336.034.43.045l.158,0a3.882,3.882,0,0,0,3.3-1.49,22.912,22.912,0,0,0,1.4-2.2l.015-.026.02-.034.013-.024.009-.015.051-.089,0-.007c.121-.21.252-.436.388-.662a.579.579,0,0,0-.022-.423c-.627-2.152-1.154-3.947-1.613-5.487a1.282,1.282,0,0,0-.258-.514,4.064,4.064,0,0,0-2.851-1.176H8.338Zm134.5-1.975a1.929,1.929,0,0,0-.447.055,3.852,3.852,0,0,0-1.953,1.25,7.852,7.852,0,0,0-1.9,4.033,17.123,17.123,0,0,0-.173,1.741c-.014.236-.032.511-.056.784l.174.059.168-.064.015-.006c.159-.06.324-.122.486-.193a8.747,8.747,0,0,0,4.71-4.252,4.752,4.752,0,0,0,.43-1.887,1.485,1.485,0,0,0-.4-1.1A1.452,1.452,0,0,0,142.836,21.841ZM16.267,5.154c-.162,0-.349.121-.572.37a5.386,5.386,0,0,0-1.072,2.2,23.485,23.485,0,0,0-.695,6.048,61.418,61.418,0,0,0,.539,8.839c.1.795.256,1.633.368,2.244l.032.183.015.082.021.118.023.127,0,.009c.031.173.063.355.093.529l.134-.007.038,0c.1-.408.2-.829.3-1.251l.027-.117.015-.064,0-.016.012-.052c.2-.833.447-1.869.652-2.871A52.176,52.176,0,0,0,17.421,9.447a10.731,10.731,0,0,0-.636-3.734C16.633,5.337,16.464,5.154,16.267,5.154ZM124.8,5.816c-.477,0-.635.538-.721.827l-.09.3,0,.009,0,.016,0,.008a31.268,31.268,0,0,0-.807,3.115,57.8,57.8,0,0,0-.813,8.945,18.522,18.522,0,0,0,.473,4.706,9.673,9.673,0,0,0,1.582-2.452,22.181,22.181,0,0,0,1.965-10.932,10.718,10.718,0,0,0-.763-3.706l-.016-.037c-.163-.372-.348-.794-.79-.8ZM86.266,5.332c-.619.522-1.38,3.146-1.885,5.427a22.38,22.38,0,0,0-.759,5.972,35.39,35.39,0,0,0,2.644-11.4ZM66.17,5.26c-1.305,1.079-2.959,9.825-2.631,11.351C64.777,14.691,66.474,7.371,66.17,5.26Zm39.969.024a32.82,32.82,0,0,0-2.511,11.3A36.55,36.55,0,0,0,106.371,5.34Z" transform="translate(0 0)" fill="#527ee9"/>
      <path id="Shape-2" data-name="Shape" d="M0,3.456A3.261,3.261,0,0,1,2.905.011a3.349,3.349,0,0,1,3.348,3,4.658,4.658,0,0,1-.329,2.684A2.637,2.637,0,0,1,3.012,7.33,3.752,3.752,0,0,1,0,3.456Z" transform="translate(45.281 9.478)" fill="#527ee9"/>
    </g>
  </g>
</svg>
