<svg xmlns="http://www.w3.org/2000/svg" width="190.607" height="82.14" viewBox="0 0 190.607 82.14">
  <g id="Logo_3" data-name="Logo 3" transform="translate(0 0)" opacity="0.26">
    <rect id="Logo_box" data-name="Logo box" width="190.607" height="82.14" fill="none"/>
    <g id="slack" transform="translate(18.955 17.902)">
      <path id="Shape" d="M66.087,35.8h-.122a11.723,11.723,0,0,1-9.117-3.749,13.351,13.351,0,0,1-3.059-8.81,12.715,12.715,0,0,1,3.234-8.771,11.891,11.891,0,0,1,8.924-3.74h.1c4.822,0,8.088,2.225,8.638,3.152a.788.788,0,0,1-.023.675A23.776,23.776,0,0,1,72.532,18a.391.391,0,0,1-.311.182,1.086,1.086,0,0,1-.544-.267l-.021-.015-.019-.013L71.51,17.8a9.968,9.968,0,0,0-5.1-1.606,6.032,6.032,0,0,0-4.4,1.709A7.458,7.458,0,0,0,60.1,23.354c.027,4.217,2.447,6.894,6.316,6.986l.123,0a7.549,7.549,0,0,0,4.691-2,.542.542,0,0,1,.368-.153,1.083,1.083,0,0,1,.638.3,29.059,29.059,0,0,1,2.292,2.65.759.759,0,0,1-.04,1.029A10.666,10.666,0,0,1,66.087,35.8ZM9.857,35.767l-.3,0c-5.218-.106-8.111-2.154-9.113-3.03A1.393,1.393,0,0,1,.1,31.251a11.188,11.188,0,0,1,1.553-2.777,1.05,1.05,0,0,1,.85-.356,1.114,1.114,0,0,1,.578.146A12.885,12.885,0,0,0,9.29,30.594c.094,0,.2.007.349.007.121,0,.193,0,.258,0,2.354-.058,3.742-.978,3.713-2.461-.023-1.213-1.509-2.036-4.818-2.668-4.4-.84-8.474-2.3-8.474-7.249,0-4.831,3.583-7.831,9.352-7.831a14.921,14.921,0,0,1,8.324,2.356,1.092,1.092,0,0,1,.4,1.322c-.329.829-.917,2.044-1.329,2.817a.711.711,0,0,1-.668.356,1.209,1.209,0,0,1-.524-.121l-.133-.068a14.451,14.451,0,0,0-4.687-1.724,10.4,10.4,0,0,0-1.115-.061c-.074,0-.148,0-.222,0-1.7.039-2.865.667-3.284,1.769a2.1,2.1,0,0,0-.147.708c-.045,1.625,2.312,2.172,4.73,2.593,2.941.511,4.763,1.137,6.091,2.094a6.009,6.009,0,0,1,2.446,5.26,7.542,7.542,0,0,1-2.441,5.628A10.5,10.5,0,0,1,9.857,35.767Zm28.9,0a8.607,8.607,0,0,1-6.1-2.316,6.61,6.61,0,0,1-1.895-4.8,7.374,7.374,0,0,1,2.172-5.5,8.973,8.973,0,0,1,4.958-2.295A13.672,13.672,0,0,1,39.9,20.7a13.986,13.986,0,0,1,5.1.926.263.263,0,0,0,.095.016c.144,0,.3-.087.3-.227a14.434,14.434,0,0,0-.138-2.352c-.234-1.115-1.106-2.518-3.928-2.872a8.083,8.083,0,0,0-.991-.064c-.194,0-.374.007-.535.021a12.958,12.958,0,0,0-4.94,2.072l-.138.083-.041.025-.163.1a.508.508,0,0,1-.257.063.6.6,0,0,1-.447-.179,30.064,30.064,0,0,1-2.11-3.266.785.785,0,0,1,.246-.822A13.219,13.219,0,0,1,41.1,10.745c.078,0,.191,0,.369,0,3.318.07,5.737.911,7.4,2.569,1.72,1.721,2.633,4.327,2.791,7.968.083,1.933.039,6.421-.133,13.339l-.006.227c-.007.251-.072.509-.509.517-.467.018-1.2.027-2.174.027-1.144,0-2.183-.012-2.475-.016-.579-.029-.636-.332-.644-.614,0-.076-.006-.209-.01-.372l-.008-.277-.008-.32-.008-.282c0-.161-.1-.218-.191-.218a.157.157,0,0,0-.109.038A8.983,8.983,0,0,1,38.753,35.765Zm4.226-10.98a10.965,10.965,0,0,0-4.427.825,3.09,3.09,0,0,0-2.008,2.758,2.715,2.715,0,0,0,1,2.224,4.167,4.167,0,0,0,2.6.754c.134,0,.269,0,.4-.011a5.971,5.971,0,0,0,4.707-2.512,10.045,10.045,0,0,0,.3-3.073c0-.168-.327-.478-.467-.536A5.291,5.291,0,0,0,42.979,24.785ZM92.854,35.5a.674.674,0,0,1-.6-.318l-.031-.045,0,0-.053-.077-.01-.015c-1.021-1.467-1.951-2.83-2.765-4.051-.605-.908-1.249-1.889-1.767-2.678-.87-1.326-1.69-2.577-2.065-3.089a.3.3,0,0,0-.242-.136.266.266,0,0,0-.187.079c-.488.481-1.619,1.707-2.082,2.212a1.163,1.163,0,0,0-.157.422L82.8,35.012c0,.017-.09.418-.66.418-.5.009-1.224.015-1.925.015-1.281,0-2.324-.018-2.86-.049a.505.505,0,0,1-.464-.5c-.143-3.77-.488-30.526-.244-34.272A.737.737,0,0,1,77.239.04C77.669.014,78.4,0,79.295,0c1.037,0,2.077.019,2.651.049a.656.656,0,0,1,.57.543c.12,2.4.184,17.71.191,19.447,0,.252.061.385.172.385a.5.5,0,0,0,.3-.187c1.657-1.688,7.2-7.327,9.017-9.04a1.29,1.29,0,0,1,.971-.39,1.988,1.988,0,0,1,.408.045c1.2.256,2.994.681,4.083,1.009.394.12.612.277.668.481s-.06.482-.352.8c-1.777,1.938-6.425,6.558-7.807,7.928a.4.4,0,0,0-.021.567c.225.314.626.814,1.089,1.393l.019.024c.856,1.071,2.029,2.538,3.16,4.123,1.438,2.018,2.82,4.2,3.735,5.639.329.52.575.908.756,1.181a.4.4,0,0,1,.06.37.41.41,0,0,1-.309.233c-1.283.3-5.415.87-5.749.9A.5.5,0,0,1,92.854,35.5Zm-67.5-.018c-1.321,0-2.081,0-2.258-.008a.675.675,0,0,1-.734-.679c-.037-.333-.209-23.824.027-34.186a.384.384,0,0,1,.3-.375A16.337,16.337,0,0,1,25.792.009a15.709,15.709,0,0,1,1.844.083c.256.034.377.188.39.5.157,3.809.28,28.9.015,34.306a.6.6,0,0,1-.619.582h-.016Z" transform="translate(54.759 0)" fill="#527ee9"/>
      <path id="Shape-2" data-name="Shape" d="M3.871,18.955A3.766,3.766,0,0,1,.207,16.319q-.029-.091-.055-.184A4.049,4.049,0,0,1,2.7,11.211L34.9.176A4.272,4.272,0,0,1,36.071,0a3.864,3.864,0,0,1,3.762,2.692l.048.159a3.961,3.961,0,0,1-2.687,4.692L5.178,18.727A4.081,4.081,0,0,1,3.871,18.955Z" transform="translate(0 6.318)" fill="#527ee9"/>
      <path id="Shape-3" data-name="Shape" d="M3.876,18.955A3.749,3.749,0,0,1,.21,16.377q-.03-.09-.055-.181a4.04,4.04,0,0,1,2.54-4.932L34.8.217A4.07,4.07,0,0,1,36.077,0a3.884,3.884,0,0,1,3.743,2.647l.049.166a4.2,4.2,0,0,1-.49,3.323A5.381,5.381,0,0,1,37.47,7.5L5.24,18.718a4.353,4.353,0,0,1-1.364.237Z" transform="translate(5.265 22.115)" fill="#527ee9"/>
      <path id="Shape-4" data-name="Shape" d="M14.979,40.017a4.014,4.014,0,0,1-3.847-2.706L.211,5.247l-.055-.18A3.96,3.96,0,0,1,2.742.21,4.087,4.087,0,0,1,4,0,4.037,4.037,0,0,1,5.813.417,3.977,3.977,0,0,1,7.838,2.71l10.92,32.06.032.1a3.98,3.98,0,0,1-2.561,4.936,4.1,4.1,0,0,1-1.249.207Z" transform="translate(21.062 1.053)" fill="#527ee9"/>
      <path id="Shape-5" data-name="Shape" d="M14.969,40.017a4.014,4.014,0,0,1-3.846-2.709L.211,5.244A3.931,3.931,0,0,1,.418,2.207a4,4,0,0,1,2.319-2A4.106,4.106,0,0,1,3.987,0,4.011,4.011,0,0,1,7.832,2.707L18.744,34.772a3.931,3.931,0,0,1-.207,3.038,4,4,0,0,1-2.321,2,4.081,4.081,0,0,1-1.248.207h0Z" transform="translate(5.265 6.318)" fill="#527ee9"/>
      <path id="Shape-6" data-name="Shape" d="M2.341,9.478,9.478,7.009,7.145,0,0,2.443,2.341,9.478Z" transform="translate(28.433 24.221)" fill="#527ee9"/>
      <path id="Shape-7" data-name="Shape" d="M2.354,9.478,9.478,7.023,7.131,0,0,2.43,2.354,9.478Z" transform="translate(12.637 29.486)" fill="#527ee9"/>
      <path id="Shape-8" data-name="Shape" d="M2.324,9.478,9.478,6.99,7.167,0,0,2.446Z" transform="translate(23.168 8.425)" fill="#527ee9"/>
      <path id="Shape-9" data-name="Shape" d="M2.345,9.478,9.478,7.013,7.145,0,0,2.422,2.345,9.478Z" transform="translate(7.372 13.69)" fill="#527ee9"/>
    </g>
  </g>
</svg>
