<svg xmlns="http://www.w3.org/2000/svg" width="190.607" height="82.14" viewBox="0 0 190.607 82.14">
  <g id="Logo_1" data-name="Logo 1" transform="translate(0 0)" opacity="0.26">
    <rect id="Logo_box" data-name="Logo box" width="190.607" height="82.14" fill="none"/>
    <g id="Google_2015_logo" transform="translate(18.955 16.849)">
      <path id="Shape" d="M12.111,25.274a11.85,11.85,0,0,1-8.558-3.59A12.838,12.838,0,0,1,0,12.637,12.838,12.838,0,0,1,3.553,3.571,11.863,11.863,0,0,1,12.111,0a11.863,11.863,0,0,1,8.557,3.571,12.838,12.838,0,0,1,3.553,9.066,12.838,12.838,0,0,1-3.553,9.047A11.85,11.85,0,0,1,12.111,25.274Zm0-20.295C8.229,4.98,5.3,8.271,5.3,12.637c0,4.294,2.991,7.658,6.809,7.658s6.809-3.364,6.809-7.658C18.919,8.271,15.992,4.98,12.111,4.98Z" transform="translate(41.07 13.69)" fill="#527ee9"/>
      <path id="Shape-2" data-name="Shape" d="M12.111,25.274a11.85,11.85,0,0,1-8.558-3.59A12.838,12.838,0,0,1,0,12.637,12.838,12.838,0,0,1,3.553,3.573,11.861,11.861,0,0,1,12.111,0a11.863,11.863,0,0,1,8.557,3.571,12.838,12.838,0,0,1,3.553,9.066,12.838,12.838,0,0,1-3.553,9.047A11.85,11.85,0,0,1,12.111,25.274Zm0-20.295C8.229,4.98,5.3,8.271,5.3,12.637c0,4.294,2.991,7.658,6.809,7.658s6.809-3.364,6.809-7.658C18.919,8.271,15.992,4.98,12.111,4.98Z" transform="translate(66.344 13.69)" fill="#527ee9"/>
      <path id="Shape-3" data-name="Shape" d="M12.213,35.8a11.916,11.916,0,0,1-7.375-2.414,12.218,12.218,0,0,1-3.824-4.873l4.831-1.968a6.952,6.952,0,0,0,6.362,4.387c4.286,0,6.744-2.641,6.744-7.247V21.913h-.193A8.7,8.7,0,0,1,12.1,24.723a12.12,12.12,0,0,1-8.422-3.559A12.242,12.242,0,0,1,0,12.409,12.385,12.385,0,0,1,3.683,3.587,12.073,12.073,0,0,1,12.1,0a8.85,8.85,0,0,1,6.653,2.765h.193V.753h5.27V22.945c0,4.3-1.2,7.613-3.565,9.854A11.981,11.981,0,0,1,12.213,35.8ZM12.6,4.872a7.221,7.221,0,0,0-7.035,7.537A7.172,7.172,0,0,0,12.6,19.856c3.845,0,6.744-3.2,6.744-7.447C19.345,8.113,16.445,4.872,12.6,4.872Z" transform="translate(93.724 13.69)" fill="#527ee9"/>
      <path id="Shape-4" data-name="Shape" d="M5.265,0V36.858H0V0Z" transform="translate(121.104 1.053)" fill="#527ee9"/>
      <path id="Shape-5" data-name="Shape" d="M12.464,25.274a12.328,12.328,0,0,1-8.908-3.661A12.721,12.721,0,0,1,0,12.637,12.981,12.981,0,0,1,3.5,3.5,11.523,11.523,0,0,1,11.847,0a10.45,10.45,0,0,1,7.428,2.962A13.943,13.943,0,0,1,22.6,8.039l.572,1.436-16.791,7A6.359,6.359,0,0,0,12.464,20.3a7.121,7.121,0,0,0,6.184-3.5l4.281,2.871A12.5,12.5,0,0,1,12.464,25.274Zm-.43-20.386a6.717,6.717,0,0,0-4.6,2.071,7.076,7.076,0,0,0-1.958,5.3l11.224-4.69A4.856,4.856,0,0,0,12.034,4.889Z" transform="translate(129.528 13.69)" fill="#527ee9"/>
      <path id="Shape-6" data-name="Shape" d="M19.732,23.159V17.836H37.645a17.661,17.661,0,0,1,.266,3.213c0,3.994-1.09,8.932-4.6,12.451-3.418,3.564-7.784,5.464-13.569,5.464A19.742,19.742,0,0,1,0,19.482,19.742,19.742,0,0,1,19.738,0,18.525,18.525,0,0,1,33.07,5.368L29.319,9.124a13.54,13.54,0,0,0-9.586-3.8A13.966,13.966,0,0,0,5.779,19.482,13.966,13.966,0,0,0,19.732,33.641a13.007,13.007,0,0,0,9.824-3.9,11.04,11.04,0,0,0,2.881-6.59Z" fill="#527ee9"/>
    </g>
  </g>
</svg>
