<svg xmlns="http://www.w3.org/2000/svg" width="190.607" height="82.14" viewBox="0 0 190.607 82.14">
  <g id="Logo_5" data-name="Logo 5" transform="translate(0 0)" opacity="0.26">
    <rect id="Logo_box" data-name="Logo box" width="190.607" height="82.14" fill="none"/>
    <g id="behance-4" transform="translate(17.902 26.327)">
      <path id="Shape" d="M150.274,29.8a12.389,12.389,0,0,1-4.529-.844,8.443,8.443,0,0,1-3.369-2.315,8.334,8.334,0,0,1-2.106-3.476,12.292,12.292,0,0,1-.737-4.527,12.149,12.149,0,0,1,.737-4.423,11.3,11.3,0,0,1,2.211-3.58,10.66,10.66,0,0,1,3.37-2.316,12.277,12.277,0,0,1,4.423-.843,9.149,9.149,0,0,1,4.633,1.053,8.565,8.565,0,0,1,3.265,2.843,12.683,12.683,0,0,1,1.9,4,13.923,13.923,0,0,1,.42,4.739H145.218a5.979,5.979,0,0,0,1.476,4,5.315,5.315,0,0,0,3.791,1.264,5.744,5.744,0,0,0,3.054-.843,4.226,4.226,0,0,0,1.58-1.9h5.055a10.233,10.233,0,0,1-3.792,5.476A11.194,11.194,0,0,1,150.274,29.8Zm-.106-17.9a5.056,5.056,0,0,0-2.317.526,4.255,4.255,0,0,0-1.474,1.158,3.83,3.83,0,0,0-.736,1.475c-.018.093-.037.182-.055.269a5.526,5.526,0,0,0-.155,1.1h9.478a7.242,7.242,0,0,0-1.476-3.369A4.554,4.554,0,0,0,150.168,11.9ZM37.279,29.8a12.377,12.377,0,0,1-4.527-.844,8.449,8.449,0,0,1-3.37-2.315,8.334,8.334,0,0,1-2.106-3.476,12.237,12.237,0,0,1-.737-4.527,12.092,12.092,0,0,1,.737-4.423,11.355,11.355,0,0,1,2.211-3.58,10.643,10.643,0,0,1,3.37-2.316,11.786,11.786,0,0,1,4.422-.843A9.74,9.74,0,0,1,42.017,8.53a8.57,8.57,0,0,1,3.265,2.843,12.86,12.86,0,0,1,1.9,4,21.842,21.842,0,0,1,.21,4.634H32.119a6.055,6.055,0,0,0,1.474,4.107,5.171,5.171,0,0,0,3.791,1.264,5.712,5.712,0,0,0,3.055-.843,4.271,4.271,0,0,0,1.579-1.9h5.161a10.234,10.234,0,0,1-3.791,5.476A11.336,11.336,0,0,1,37.279,29.8Zm-.316-17.9a5.094,5.094,0,0,0-2.316.526,5.519,5.519,0,0,0-1.475,1.158,2.787,2.787,0,0,0-.737,1.475c-.013.069-.027.136-.042.2l-.01.052v.007a5.53,5.53,0,0,0-.157,1.107H41.7a5.622,5.622,0,0,0-1.475-3.369A4.549,4.549,0,0,0,36.963,11.9Zm90.774,17.8a11.308,11.308,0,0,1-4.318-.843,9.372,9.372,0,0,1-3.369-2.212,10.383,10.383,0,0,1-2.213-3.369,11.7,11.7,0,0,1-.736-4.319,12.328,12.328,0,0,1,.736-4.528,11.455,11.455,0,0,1,2.106-3.686,10.858,10.858,0,0,1,3.371-2.422,12.4,12.4,0,0,1,4.527-.843,13.35,13.35,0,0,1,3.58.527,9.131,9.131,0,0,1,3.055,1.473,6.493,6.493,0,0,1,2.211,2.528,8.859,8.859,0,0,1,.948,3.58h-5.687c-.207-2.516-1.588-3.791-4.106-3.791a3.984,3.984,0,0,0-2.316.633,4.865,4.865,0,0,0-1.579,1.685,6.886,6.886,0,0,0-.844,2.211,9.474,9.474,0,0,0-.209,2.423,17.619,17.619,0,0,0,.209,2.315,6.262,6.262,0,0,0,.844,2.107,5.237,5.237,0,0,0,1.474,1.579,3.988,3.988,0,0,0,2.316.633A4.731,4.731,0,0,0,131,24.222a4.906,4.906,0,0,0,1.37-3.16h5.581a9.714,9.714,0,0,1-3.266,6.425A10.619,10.619,0,0,1,127.737,29.7ZM79.4,29.7a8.406,8.406,0,0,1-2.843-.42,6.787,6.787,0,0,1-2.317-1.159,6.127,6.127,0,0,1-1.579-2,7.549,7.549,0,0,1-.527-2.844,6.121,6.121,0,0,1,.632-2.949,6.972,6.972,0,0,1,1.579-1.9,7.845,7.845,0,0,1,2.317-1.053l.018,0a19.141,19.141,0,0,1,2.615-.521l2.527-.317c.816-.1,1.56-.208,2.212-.316a5.44,5.44,0,0,0,1.579-.737,1.5,1.5,0,0,0,.527-1.369,2.764,2.764,0,0,0-.316-1.475,3.234,3.234,0,0,0-.843-.843,3.8,3.8,0,0,0-1.155-.419,6.466,6.466,0,0,0-1.478-.107,3.891,3.891,0,0,0-2.633.737,3.552,3.552,0,0,0-1.158,2.422H72.768a6.321,6.321,0,0,1,.948-3.264A7.708,7.708,0,0,1,76.032,8.95a10.328,10.328,0,0,1,3.16-1.158,19.485,19.485,0,0,1,3.475-.316c.993,0,1.954.089,2.971.184l.295.027a8.678,8.678,0,0,1,2.948.843,6.093,6.093,0,0,1,2.212,1.79,5.237,5.237,0,0,1,.842,3.055V24.432a22.908,22.908,0,0,0,.21,2.739,4.431,4.431,0,0,0,.737,2h-5.9a1.99,1.99,0,0,1-.367-.778l0-.007,0-.006-.031-.1,0-.006-.017-.054a3.609,3.609,0,0,1-.105-1.053,8.05,8.05,0,0,1-3.264,2A11.605,11.605,0,0,1,79.4,29.7Zm6.74-10.846,0,0-.018.012a4.1,4.1,0,0,1-.926.51c-.313.105-.76.217-1.119.307l-.012,0-.027.007a5.572,5.572,0,0,1-.651.107h-.044l-.026,0c-.2.024-.406.048-.65.1a5.5,5.5,0,0,1-.684.105,5.526,5.526,0,0,0-.685.105l-1.264.317a2.48,2.48,0,0,0-1.053.526,2.81,2.81,0,0,0-.732.834l-.006.009a2.047,2.047,0,0,0-.315,1.369,2.235,2.235,0,0,0,.317,1.264l0,.007.007.009a2.8,2.8,0,0,0,.725.826,3.666,3.666,0,0,0,1.152.419l.007,0a5.655,5.655,0,0,0,1.368.105,5.831,5.831,0,0,0,2.633-.526,4.235,4.235,0,0,0,1.37-1.37,3.112,3.112,0,0,0,.527-1.579,6.08,6.08,0,0,0,.105-1.264Zm14.637,10.426H94.987V8h5.688v2.949h.105a6.183,6.183,0,0,1,2.842-2.633,8.953,8.953,0,0,1,3.581-.843,9.483,9.483,0,0,1,3.791.632A5.134,5.134,0,0,1,113.312,9.9a9.34,9.34,0,0,1,1.262,2.738,18.141,18.141,0,0,1,.317,3.581V29.17H109.1V17.27a7.412,7.412,0,0,0-.844-3.9,3.211,3.211,0,0,0-2.949-1.369,4.215,4.215,0,0,0-3.475,1.579c-.709.908-1.053,2.424-1.053,4.634V29.275Zm-45.176-.1H49.811V0H55.6V10.952h.105A6.2,6.2,0,0,1,58.551,8.32a7.939,7.939,0,0,1,3.369-.843,9.464,9.464,0,0,1,3.791.632A5.737,5.737,0,0,1,68.029,9.9a7.153,7.153,0,0,1,1.158,2.738,18.2,18.2,0,0,1,.316,3.581V29.169H63.711V17.27a7.43,7.43,0,0,0-.843-3.9,3.094,3.094,0,0,0-2.843-1.263,4.054,4.054,0,0,0-3.369,1.37c-.709.9-1.053,2.419-1.053,4.633V29.17Zm-41.491-.106H0V0H13.8a14.333,14.333,0,0,1,3.791.421A8.258,8.258,0,0,1,20.535,1.58a4.89,4.89,0,0,1,1.9,2.212,8.334,8.334,0,0,1,.631,3.37,5.884,5.884,0,0,1-1.053,3.686,7.657,7.657,0,0,1-2.949,2.421,7.062,7.062,0,0,1,4,2.738,8.707,8.707,0,0,1,.527,8.425,7.042,7.042,0,0,1-2.317,2.633A10.844,10.844,0,0,1,17.9,28.538,15.64,15.64,0,0,1,14.111,29.065ZM6.424,16.112v8.109h6.845a10,10,0,0,0,1.79-.21,3.681,3.681,0,0,0,1.474-.632,3.748,3.748,0,0,0,1.054-1.159,4.907,4.907,0,0,0,.421-1.9,4.075,4.075,0,0,0-1.263-3.265,5.545,5.545,0,0,0-3.37-.947Zm0-11.163v6.845h6.529a4.79,4.79,0,0,0,2.843-.842A3.073,3.073,0,0,0,16.849,8.32a4.034,4.034,0,0,0-.317-1.685,2.947,2.947,0,0,0-.948-1.053l-.008,0a5.452,5.452,0,0,0-1.361-.523,8.577,8.577,0,0,0-1.685-.105Zm36.331-.105H30.961V2H42.755V4.843Z" transform="translate(0 0)" fill="#527ee9"/>
    </g>
  </g>
</svg>
