<svg xmlns="http://www.w3.org/2000/svg" width="191.66" height="82.14" viewBox="0 0 191.66 82.14">
  <g id="Logo_2" data-name="Logo 2" transform="translate(0 0)" opacity="0.26">
    <rect id="Logo_box" data-name="Logo box" width="190.607" height="82.14" fill="none"/>
    <g id="facebook-1" transform="translate(0 1.053)">
      <path id="Shape" d="M0,0H191.66V72.662H0Z" fill="#527ee9"/>
      <g id="Group" transform="translate(21.633 21.676)">
        <path id="Shape-2" data-name="Shape" d="M154.305,31.727a2.009,2.009,0,0,1,0-4.015h.008a2.009,2.009,0,0,1-.008,4.015Zm0-3.7a1.7,1.7,0,0,0,.008,3.393h.014a1.47,1.47,0,0,0,1.095-.494,1.77,1.77,0,0,0,.45-1.2,1.637,1.637,0,0,0-1.559-1.7ZM60.395,31.708c-6.21,0-9.493-3.1-9.493-8.958V18.413a8.642,8.642,0,0,1,1.872-5.95c1.475-1.643,3.861-2.476,7.091-2.476s5.621.827,7.091,2.459a8.552,8.552,0,0,1,1.87,5.966v4.336h-11.6v.436a2.978,2.978,0,0,0,.783,2.484,4.55,4.55,0,0,0,2.91.631,36.455,36.455,0,0,0,7.378-.708v5.28A32.323,32.323,0,0,1,60.395,31.708Zm-.529-16.845c-2.339,0-2.639,1.448-2.639,2.71v.842H62.5v-.842C62.5,16.311,62.2,14.863,59.866,14.863ZM42.7,31.708c-6.208,0-9.49-3.1-9.49-8.958V18.957c0-5.868,3.282-8.97,9.49-8.97a27.561,27.561,0,0,1,6.327.839V16.1a29.958,29.958,0,0,0-5.8-.7,4.551,4.551,0,0,0-2.909.63,2.975,2.975,0,0,0-.783,2.482v4.673a2.978,2.978,0,0,0,.783,2.484,4.548,4.548,0,0,0,2.909.631,29.426,29.426,0,0,0,5.8-.708v5.28A27.418,27.418,0,0,1,42.7,31.708ZM79.33,31.7a46.549,46.549,0,0,1-8.386-.825l0-29.247L77.266.544v10.23a13.978,13.978,0,0,1,4.745-.786c3.017,0,4.943.648,6.06,2.04,1.161,1.444,1.317,3.613,1.317,5.544V22.85c0,3.07-.535,4.967-1.791,6.342C86.057,30.878,83.353,31.7,79.33,31.7Zm1.1-16.288a6.977,6.977,0,0,0-3.161.875l0,10.007a20.092,20.092,0,0,0,2.278.088c2.944,0,3.52-1.278,3.52-3.486V18.115C83.064,16.855,82.765,15.41,80.429,15.41Zm-60.8,16.269c-3.654,0-5.924-2.42-5.924-6.315,0-4.058,2.065-5.868,6.7-5.868h4.373v-.935c0-2.122-.172-2.856-3.555-2.856H15.814l.529-5.413h5.912c3.642,0,5.846.592,7.146,1.921,1.194,1.218,1.7,3.13,1.7,6.391V31.457H25.832L25.6,30.09A11.742,11.742,0,0,1,19.632,31.679Zm2.323-7.848c-1.276,0-1.924.224-1.924,1.447s.572,1.8,1.749,1.8a5.627,5.627,0,0,0,2.719-.743l.148-.07.131-.063V23.831Zm98.753,7.825c-6.133,0-9.243-2.925-9.243-8.695V18.7c0-5.771,3.11-8.7,9.243-8.7,3.391,0,5.877.906,7.39,2.693a9.057,9.057,0,0,1,1.818,6.005v4.261a9.053,9.053,0,0,1-1.818,6C126.585,30.75,124.1,31.655,120.708,31.655Zm-.022-16.246c-2.392,0-2.894,1.471-2.894,2.7v5.474c0,1.237.5,2.713,2.894,2.713s2.9-1.475,2.9-2.713V18.115C123.591,16.881,123.087,15.41,120.686,15.41ZM100.452,31.655c-6.133,0-9.243-2.925-9.243-8.695V18.7c0-5.771,3.11-8.7,9.243-8.7,3.392,0,5.878.906,7.39,2.693a9.062,9.062,0,0,1,1.817,6.005v4.261a9.057,9.057,0,0,1-1.817,6C106.33,30.75,103.844,31.655,100.452,31.655Zm-.021-16.246c-2.395,0-2.9,1.471-2.9,2.7v5.474c0,1.237.5,2.713,2.9,2.713s2.9-1.475,2.9-2.713V18.115C103.329,16.881,102.826,15.41,100.431,15.41Zm37.621,16.008h-6.325V1.625L138.052.543V19.721l5.8-9.427H150.7l-6.328,10.288L150.7,31.415l-6.853,0-5.8-9.93v9.93Zm-128.566,0H3.161V15.706H0V10.294H3.162V7.043c0-2.335.5-4.029,1.526-5.178C5.808.61,7.551,0,10.015,0h4.221V5.415H11.6c-2.006,0-2.1.784-2.1,2.168l-.008,2.71h4.78l-.559,5.414H9.486V31.416Zm145.678-.534h0l-.363,0a1.71,1.71,0,0,1-.148-.571.409.409,0,0,0-.468-.39h-.241v.962h-.348V28.645l.028,0h.008a3.739,3.739,0,0,1,.58-.047,1.167,1.167,0,0,1,.678.169.542.542,0,0,1,.2.463.55.55,0,0,1-.423.544v.017c.2.038.32.221.364.542a1.9,1.9,0,0,0,.137.553Zm-.971-2.014a1.7,1.7,0,0,0-.252.017v.758h.252c.335,0,.527-.14.527-.385C154.72,29.168,154.682,28.869,154.193,28.869Z" transform="translate(0 0)" fill="#fafbfe"/>
      </g>
    </g>
  </g>
</svg>
